<svg width="97" height="90" viewBox="0 0 97 90" fill="none" xmlns="http://www.w3.org/2000/svg">
<path d="M59.5584 0C79.9753 0 97 14.0671 97 31.8854C97 41.0009 92.0203 48.946 84.9475 54.7454C85.4042 57.8269 86.6547 60.7359 88.5756 63.1857C89.3596 64.191 90.1788 65.1682 91.0318 66.1154C91.4734 66.5816 91.8661 67.0919 92.2037 67.6384C92.4171 67.9872 92.7504 68.3773 92.9039 69.1651C93.0611 69.9491 92.8477 71.2395 92.2037 72.2111L91.7357 73.0326L90.7997 73.5015C87.5235 75.1408 83.9853 74.852 80.7354 73.9704C77.4892 73.0851 74.3665 71.5696 71.375 69.9829C68.3871 68.3999 65.5453 66.7418 63.3025 65.5302C62.988 65.3614 62.7859 65.3201 62.4826 65.1776C56.578 73.3102 45.7649 78.7757 33.7012 78.7757C33.5851 78.7908 33.4766 78.7757 33.3492 78.7757C28.4818 78.7757 12.7564 94.8835 3.39595 88.5064C3.02154 87.0097 11.6256 83.2547 12.0562 72.0948C4.72887 66.9069 0 59.1906 0 50.6416C0 37.9924 10.0194 27.5415 23.401 23.7978C27.6357 9.99327 42.3577 0 59.5584 0ZM59.5584 7.50245C42.5337 7.50245 29.6051 18.9437 29.6051 31.8854C29.6051 44.8272 42.5337 56.2684 59.5584 56.2684C62.5986 56.2684 64.3434 57.5138 66.8146 58.8492C69.2857 60.1809 72.12 61.8352 74.887 63.3019C77.2832 64.5699 79.5672 65.5452 81.6714 66.2317C79.6233 63.2682 77.4854 59.3707 77.111 53.9239L76.9912 51.8119L78.7472 50.5253C85.4193 45.84 89.5117 39.099 89.5117 31.8854C89.5117 18.9437 76.5831 7.50245 59.5584 7.50245Z" fill="#E2211C"/>
<circle cx="48.5" cy="32.5" r="3.5" fill="#E2211C"/>
<circle cx="59.5" cy="32.5" r="3.5" fill="#E2211C"/>
<circle cx="70.5" cy="32.5" r="3.5" fill="#E2211C"/>
</svg>
