<svg width="15" height="15" viewBox="0 0 15 15" fill="none" xmlns="http://www.w3.org/2000/svg">
<path d="M14.0412 0.240674C14.475 0.485281 14.7945 0.893342 14.9295 1.37512C15.0646 1.8569 15.004 2.37295 14.7612 2.80978L8.59509 13.8964C8.43892 14.1772 8.22232 14.4194 7.96116 14.605C7.7 14.7906 7.4009 14.9151 7.08576 14.9693C6.77063 15.0234 6.44746 15.0059 6.13993 14.9179C5.8324 14.83 5.5483 14.6739 5.30846 14.4611L0.6354 10.3164C0.262295 9.98542 0.0350773 9.51872 0.00373181 9.01901C-0.0276137 8.51931 0.139481 8.02753 0.468256 7.65187C0.797032 7.27621 1.26056 7.04743 1.75686 7.01587C2.25317 6.98431 2.74159 7.15255 3.1147 7.48358L6.29471 10.3046L11.489 0.965612C11.6093 0.749279 11.7708 0.558922 11.9641 0.40541C12.1575 0.251898 12.379 0.138238 12.616 0.0709205C12.853 0.003603 13.1008 -0.0160538 13.3454 0.0130727C13.5899 0.0421991 13.8263 0.119538 14.0412 0.240674Z" fill="#E2211C"/>
</svg>
