<svg width="28" height="28" viewBox="0 0 28 28" fill="none" xmlns="http://www.w3.org/2000/svg">
<path d="M14 0C21.7322 0 28 6.2678 28 14C28 21.7322 21.7322 28 14 28C11.5259 28.004 9.09533 27.3492 6.95801 26.103L0.00561969 28L1.89842 21.0448C0.651149 18.9068 -0.00411372 16.4752 1.94323e-05 14C1.94323e-05 6.2678 6.26782 0 14 0ZM9.22881 7.42L8.94881 7.43119C8.76754 7.44223 8.59039 7.48986 8.42801 7.57119C8.27614 7.6572 8.13751 7.76471 8.01641 7.89039C7.84841 8.04859 7.75321 8.18579 7.65101 8.31879C7.13318 8.99206 6.85438 9.81863 6.85861 10.668C6.86141 11.354 7.04061 12.0218 7.32061 12.6462C7.89321 13.909 8.83541 15.246 10.0786 16.485C10.3782 16.7832 10.6722 17.0828 10.9886 17.3614C12.5334 18.7214 14.3742 19.7022 16.3646 20.2258L17.1598 20.3476C17.4188 20.3616 17.6778 20.342 17.9382 20.3294C18.3459 20.3083 18.7441 20.1979 19.1044 20.006C19.2877 19.9116 19.4667 19.8088 19.6406 19.698C19.6406 19.698 19.7008 19.6588 19.8156 19.572C20.0046 19.432 20.1208 19.3326 20.2776 19.1688C20.3938 19.0484 20.4946 18.907 20.5716 18.746C20.6808 18.5178 20.79 18.0824 20.8348 17.7198C20.8684 17.4426 20.8586 17.2914 20.8544 17.1976C20.8488 17.0478 20.7242 16.8924 20.5884 16.8266L19.7736 16.4612C19.7736 16.4612 18.5556 15.9306 17.8108 15.5918C17.7329 15.5578 17.6494 15.5383 17.5644 15.5344C17.4686 15.5246 17.3718 15.5353 17.2806 15.566C17.1893 15.5967 17.1056 15.6465 17.0352 15.7122C17.0282 15.7094 16.9344 15.7892 15.9222 17.0156C15.8641 17.0937 15.7841 17.1527 15.6923 17.1851C15.6006 17.2175 15.5012 17.2218 15.407 17.1976C15.3158 17.1731 15.2265 17.1423 15.1396 17.1052C14.966 17.0324 14.9058 17.0044 14.7868 16.954C13.9833 16.6034 13.2394 16.1296 12.5818 15.5498C12.4054 15.3958 12.2416 15.2278 12.0736 15.0654C11.5228 14.5379 11.0428 13.9412 10.6456 13.2902L10.563 13.1572C10.5037 13.0678 10.4557 12.9714 10.4202 12.8702C10.367 12.6644 10.5056 12.4992 10.5056 12.4992C10.5056 12.4992 10.8458 12.1268 11.004 11.9252C11.158 11.7292 11.2882 11.5388 11.3722 11.403C11.5374 11.137 11.5892 10.864 11.5024 10.6526C11.1104 9.69499 10.7044 8.74159 10.2872 7.79519C10.2046 7.60759 9.95961 7.47319 9.73701 7.44659C9.66141 7.43819 9.58581 7.42979 9.51021 7.42419C9.3222 7.41485 9.1338 7.41672 8.94601 7.4298L9.22741 7.41859L9.22881 7.42Z" fill="#3C77B9"/>
</svg>
